<svg width="91" height="91" viewBox="0 0 91 91" fill="none" xmlns="http://www.w3.org/2000/svg">
  <path d="M11.375 22.75H22.75" stroke="#3d81db" stroke-width="3" stroke-linecap="round" stroke-linejoin="round" />
  <path d="M64.4583 22.75H64.4962" stroke="#3d81db" stroke-width="3" stroke-linecap="round" stroke-linejoin="round" />
  <path
    d="M72.0417 7.58337H18.9583C14.7702 7.58337 11.375 10.9785 11.375 15.1667V75.8334C11.375 80.0215 14.7702 83.4167 18.9583 83.4167H72.0417C76.2298 83.4167 79.625 80.0215 79.625 75.8334V15.1667C79.625 10.9785 76.2298 7.58337 72.0417 7.58337Z"
    stroke="#3d81db" stroke-width="3" stroke-linecap="round" stroke-linejoin="round" />
  <path
    d="M45.5 68.25C55.9704 68.25 64.4584 59.7621 64.4584 49.2917C64.4584 38.8213 55.9704 30.3334 45.5 30.3334C35.0296 30.3334 26.5417 38.8213 26.5417 49.2917C26.5417 59.7621 35.0296 68.25 45.5 68.25Z"
    stroke="#3d81db" stroke-width="3" stroke-linecap="round" stroke-linejoin="round" />
  <path
    d="M45.5 68.25C48.014 68.25 50.4251 67.2513 52.2028 65.4737C53.9805 63.696 54.9791 61.2849 54.9791 58.7709C54.9791 56.2568 53.9805 53.8458 52.2028 52.0681C50.4251 50.2904 48.014 49.2917 45.5 49.2917C42.9859 49.2917 40.5749 48.293 38.7972 46.5153C37.0195 44.7376 36.0208 42.3266 36.0208 39.8125C36.0208 37.2985 37.0195 34.8874 38.7972 33.1098C40.5749 31.3321 42.9859 30.3334 45.5 30.3334"
    stroke="#3d81db" stroke-width="3" stroke-linecap="round" stroke-linejoin="round" />
</svg>